<svg width="24" height="24" viewBox="0 0 24 25" fill="black" xmlns="http://www.w3.org/2000/svg">
<path d="M5.20446 13.1744L17.2795 22.6056C17.311 22.6305 17.3489 22.6459 17.3889 22.6502C17.4288 22.6544 17.4691 22.6473 17.5052 22.6297C17.5413 22.6121 17.5717 22.5846 17.5929 22.5505C17.614 22.5164 17.6252 22.477 17.625 22.4369L17.625 20.3663C17.625 20.2351 17.5634 20.1092 17.4616 20.0288L7.81875 12.4994L17.4616 4.96991C17.5661 4.88955 17.625 4.76366 17.625 4.63241L17.625 2.56187C17.625 2.38241 17.4187 2.2833 17.2795 2.39312L5.20446 11.8244C5.10183 11.9044 5.01881 12.0068 4.9617 12.1238C4.9046 12.2408 4.87492 12.3692 4.87492 12.4994C4.87492 12.6295 4.9046 12.758 4.9617 12.8749C5.01881 12.9919 5.10183 13.0943 5.20446 13.1744Z" />
</svg>
