<svg width="24" height="24" viewBox="0 0 24 24" fill="black" xmlns="http://www.w3.org/2000/svg">
<path d="M12.6744 18.7955L22.1056 6.72054C22.1305 6.68899 22.1459 6.65107 22.1502 6.61114C22.1544 6.57121 22.1473 6.53088 22.1297 6.4948C22.1121 6.45871 22.0847 6.42833 22.0505 6.40714C22.0164 6.38595 21.977 6.37481 21.9369 6.375L19.8663 6.375C19.7351 6.375 19.6092 6.43661 19.5288 6.5384L11.9994 16.1813L4.46987 6.5384C4.38957 6.43393 4.26367 6.375 4.13237 6.375L2.06187 6.375C1.88237 6.375 1.78327 6.58125 1.89317 6.72054L11.3244 18.7955C11.4045 18.8982 11.5069 18.9812 11.6238 19.0383C11.7408 19.0954 11.8692 19.1251 11.9994 19.1251C12.1296 19.1251 12.258 19.0954 12.375 19.0383C12.4919 18.9812 12.5943 18.8982 12.6744 18.7955Z" />
</svg>
