<svg width="24" height="24" viewBox="0 0 24 24" fill="none" xmlns="http://www.w3.org/2000/svg">
<path d="M22.4999 2.56653H1.49993C1.38207 2.56653 1.28564 2.66296 1.28564 2.78081V4.4951C1.28564 4.61296 1.38207 4.70939 1.49993 4.70939H22.4999C22.6178 4.70939 22.7142 4.61296 22.7142 4.4951V2.78081C22.7142 2.66296 22.6178 2.56653 22.4999 2.56653ZM22.4999 19.2808H1.49993C1.38207 19.2808 1.28564 19.3772 1.28564 19.4951V21.2094C1.28564 21.3272 1.38207 21.4237 1.49993 21.4237H22.4999C22.6178 21.4237 22.7142 21.3272 22.7142 21.2094V19.4951C22.7142 19.3772 22.6178 19.2808 22.4999 19.2808ZM22.4999 10.9237H1.49993C1.38207 10.9237 1.28564 11.0201 1.28564 11.138V12.8522C1.28564 12.9701 1.38207 13.0665 1.49993 13.0665H22.4999C22.6178 13.0665 22.7142 12.9701 22.7142 12.8522V11.138C22.7142 11.0201 22.6178 10.9237 22.4999 10.9237Z" fill="black"/>
</svg>
