<svg width="24" height="24" viewBox="0 0 24 24" fill="none" xmlns="http://www.w3.org/2000/svg">
<path d="M13.3871 11.9988L20.4183 3.61753C20.5362 3.47824 20.4371 3.26663 20.2549 3.26663H18.1174C17.9916 3.26663 17.871 3.32288 17.788 3.41931L11.9889 10.3327L6.18977 3.41931C6.10941 3.32288 5.98887 3.26663 5.8603 3.26663H3.7228C3.54066 3.26663 3.44155 3.47824 3.55941 3.61753L10.5907 11.9988L3.55941 20.38C3.53301 20.4111 3.51607 20.449 3.51061 20.4894C3.50514 20.5298 3.51138 20.5709 3.52859 20.6079C3.54579 20.6448 3.57323 20.676 3.60766 20.6979C3.64209 20.7197 3.68205 20.7311 3.7228 20.7309H5.8603C5.98619 20.7309 6.10673 20.6747 6.18977 20.5782L11.9889 13.6648L17.788 20.5782C17.8683 20.6747 17.9889 20.7309 18.1174 20.7309H20.2549C20.4371 20.7309 20.5362 20.5193 20.4183 20.38L13.3871 11.9988Z" fill="black"/>
</svg>
